<svg width="17" height="18" viewBox="0 0 17 18" fill="none" xmlns="http://www.w3.org/2000/svg">
<path d="M8.28159 15.4316C10.0387 15.4316 11.7239 14.737 12.9664 13.5006C14.2089 12.2642 14.9069 10.5873 14.9069 8.83875C14.9069 7.09021 14.2089 5.41329 12.9664 4.17689C11.7239 2.94048 10.0387 2.24588 8.28159 2.24588C6.52446 2.24588 4.8393 2.94048 3.59682 4.17689C2.35434 5.41329 1.65632 7.09021 1.65632 8.83875C1.65632 10.5873 2.35434 12.2642 3.59682 13.5006C4.8393 14.737 6.52446 15.4316 8.28159 15.4316ZM8.28159 0.597656C9.36915 0.597656 10.4461 0.810819 11.4508 1.22497C12.4556 1.63913 13.3685 2.24616 14.1376 3.01142C14.9066 3.77667 15.5166 4.68517 15.9328 5.68502C16.349 6.68488 16.5632 7.75652 16.5632 8.83875C16.5632 11.0244 15.6907 13.1206 14.1376 14.6661C12.5845 16.2116 10.478 17.0799 8.28159 17.0799C3.70187 17.0799 0 13.3714 0 8.83875C0 6.65308 0.872523 4.55692 2.42562 3.01142C3.97872 1.46591 6.08518 0.597656 8.28159 0.597656ZM8.69567 4.7182V9.04478L12.4224 11.2452L11.8013 12.2588L7.45343 9.66286V4.7182H8.69567Z" fill="#FF9800"/>
</svg>
