<svg width="18" height="18" viewBox="0 0 18 18" fill="none" xmlns="http://www.w3.org/2000/svg">
<path d="M10.5942 11.5123C10.8288 11.5123 11.0325 11.4263 11.2053 11.2543C11.3782 11.0823 11.4643 10.8799 11.4637 10.6469C11.4637 10.4134 11.3773 10.211 11.2045 10.0396C11.0317 9.86816 10.8283 9.78218 10.5942 9.78163C10.3595 9.78163 10.1558 9.86761 9.98298 10.0396C9.81017 10.2115 9.72404 10.414 9.7246 10.6469C9.7246 10.8804 9.811 11.0832 9.98381 11.2551C10.1566 11.4271 10.3601 11.5128 10.5942 11.5123ZM9.97304 8.8751H11.2153C11.2153 8.47679 11.2567 8.18478 11.3395 7.99908C11.4223 7.81338 11.6156 7.56972 11.9192 7.26809C12.3333 6.85604 12.6094 6.5231 12.7474 6.26927C12.8854 6.01544 12.9544 5.71657 12.9544 5.37264C12.9544 4.75456 12.7369 4.24993 12.3018 3.85875C11.8668 3.46757 11.2975 3.27171 10.5942 3.27116C10.0283 3.27116 9.53467 3.42911 9.11341 3.74502C8.69216 4.06093 8.39899 4.47985 8.23391 5.00179L9.35192 5.45505C9.47615 5.11167 9.64537 4.854 9.85959 4.68203C10.0738 4.51007 10.3187 4.42436 10.5942 4.42491C10.9254 4.42491 11.1946 4.51776 11.4016 4.70346C11.6087 4.88916 11.7122 5.13969 11.7122 5.45505C11.7122 5.64734 11.657 5.82947 11.5465 6.00143C11.4361 6.1734 11.2429 6.38959 10.9668 6.65001C10.5113 7.04833 10.232 7.36067 10.1287 7.58702C10.0255 7.81338 9.9736 8.24274 9.97304 8.8751ZM5.62521 13.9846C5.16972 13.9846 4.77966 13.8231 4.45502 13.5C4.13038 13.177 3.96834 12.7891 3.96889 12.3364V2.44705C3.96889 1.99379 4.13121 1.60563 4.45585 1.28258C4.78049 0.959531 5.17027 0.79828 5.62521 0.79883H15.5631C16.0186 0.79883 16.4087 0.960355 16.7333 1.28341C17.0579 1.60646 17.22 1.99434 17.2194 2.44705V12.3364C17.2194 12.7896 17.0571 13.1778 16.7325 13.5008C16.4078 13.8239 16.0181 13.9851 15.5631 13.9846H5.62521ZM2.31257 17.281C1.85708 17.281 1.46702 17.1195 1.14238 16.7964C0.817742 16.4734 0.655699 16.0855 0.656251 15.6328V4.09527H2.31257V15.6328H13.9068V17.281H2.31257Z" fill="#FF9800"/>
</svg>
