<svg width="20" height="21" viewBox="0 0 20 21" fill="none" xmlns="http://www.w3.org/2000/svg">
<path d="M19.353 3.89505L10.1796 0.731992C10.0227 0.677878 9.853 0.677878 9.69607 0.731992L0.522691 3.89505C0.370476 3.94754 0.238085 4.04824 0.144274 4.18289C0.0504628 4.31754 -1.18893e-05 4.47931 2.10066e-09 4.64528V12.5529C2.10066e-09 12.7626 0.0805398 12.9638 0.223902 13.1121C0.367264 13.2604 0.561704 13.3437 0.764448 13.3437C0.967193 13.3437 1.16163 13.2604 1.30499 13.1121C1.44836 12.9638 1.5289 12.7626 1.5289 12.5529V5.74247L4.73862 6.84855C3.88584 8.27371 3.61466 9.99069 3.98463 11.6225C4.35459 13.2543 5.33546 14.6675 6.71186 15.5519C4.99185 16.2497 3.505 17.512 2.41757 19.2378C2.36101 19.3248 2.32173 19.4225 2.302 19.5253C2.28228 19.6281 2.2825 19.7339 2.30265 19.8366C2.32281 19.9393 2.3625 20.0368 2.41942 20.1235C2.47633 20.2102 2.54934 20.2844 2.6342 20.3416C2.71905 20.3989 2.81406 20.4381 2.9137 20.457C3.01334 20.476 3.11563 20.4742 3.21462 20.4519C3.3136 20.4296 3.40731 20.3871 3.4903 20.327C3.57328 20.2669 3.64389 20.1903 3.69802 20.1018C5.13805 17.8164 7.41228 16.5067 9.93783 16.5067C12.4634 16.5067 14.7376 17.8164 16.1776 20.1018C16.2898 20.2741 16.463 20.3939 16.6598 20.4353C16.8566 20.4766 17.0613 20.4362 17.2295 20.3227C17.3977 20.2092 17.516 20.0317 17.5588 19.8287C17.6016 19.6257 17.5654 19.4135 17.4581 19.2378C16.3707 17.512 14.8781 16.2497 13.1638 15.5519C14.5389 14.6676 15.5188 13.2553 15.8887 11.6246C16.2586 9.99404 15.9883 8.27823 15.137 6.85349L19.353 5.40046C19.5052 5.348 19.6376 5.24731 19.7315 5.11266C19.8253 4.97801 19.8758 4.81622 19.8758 4.65023C19.8758 4.48423 19.8253 4.32244 19.7315 4.18779C19.6376 4.05314 19.5052 3.95245 19.353 3.89999V3.89505ZM14.5245 10.1806C14.5247 10.9307 14.353 11.6702 14.0234 12.3383C13.6939 13.0065 13.2159 13.5843 12.6286 14.0243C12.0414 14.4644 11.3616 14.7541 10.6452 14.8698C9.92873 14.9855 9.19596 14.9238 8.50702 14.6898C7.81807 14.4558 7.19257 14.0562 6.68184 13.5237C6.17111 12.9912 5.78971 12.3411 5.56892 11.6266C5.34813 10.9121 5.29425 10.1537 5.4117 9.41349C5.52916 8.6733 5.81459 7.97246 6.24459 7.36848L9.69607 8.55462C9.853 8.60874 10.0227 8.60874 10.1796 8.55462L13.6311 7.36848C14.2118 8.18296 14.525 9.16855 14.5245 10.1806ZM9.93783 6.97507L3.18202 4.64528L9.93783 2.3155L16.6936 4.64528L9.93783 6.97507Z" fill="#FF9800"/>
</svg>
