<svg width="14" height="17" viewBox="0 0 14 17" fill="none" xmlns="http://www.w3.org/2000/svg">
<path d="M12.0786 0C12.5179 0 12.9392 0.173651 13.2498 0.482752C13.5604 0.791853 13.7349 1.21108 13.7349 1.64822V14.834C13.7349 15.2711 13.5604 15.6903 13.2498 15.9994C12.9392 16.3085 12.5179 16.4822 12.0786 16.4822H2.14069C1.70141 16.4822 1.28012 16.3085 0.969499 15.9994C0.658879 15.6903 0.484375 15.2711 0.484375 14.834V1.64822C0.484375 1.21108 0.658879 0.791853 0.969499 0.482752C1.28012 0.173651 1.70141 0 2.14069 0H12.0786ZM12.0786 1.64822H7.93781V8.2411L5.86741 6.38685L3.79701 8.2411V1.64822H2.14069V14.834H12.0786V1.64822Z" fill="#FF9800"/>
</svg>
