<svg width="1445" height="1245" viewBox="0 0 1445 1245" fill="none" xmlns="http://www.w3.org/2000/svg">
<g clip-path="url(#clip0_373_513)" filter="url(#filter0_f_373_513)">
<rect width="1437" height="1237" transform="translate(4 4)" fill="white"/>
<rect x="-5" y="4" width="1440" height="1237" fill="#FCFCFC" fill-opacity="0.15"/>
<g opacity="0.8" filter="url(#filter1_f_373_513)">
<path fill-rule="evenodd" clip-rule="evenodd" d="M670.76 395.124C700.469 431.531 623.178 473.943 631.12 515.535C637.483 548.857 708.499 564.365 709.495 597.969C710.459 630.511 673.148 659.378 635.95 678.545C600.53 696.795 551.28 689.459 510.334 700.59C462.885 713.489 427.653 752.642 377.001 748.94C327.285 745.306 299.569 706.893 263.339 682.537C226.212 657.577 177.078 638.235 161.195 603.86C145.14 569.114 149.892 527.652 177.542 496.851C204.173 467.184 260.433 461.235 304.224 444.531C335.96 432.426 367.204 422.445 400.087 411.964C439.603 399.37 474.432 379.192 517.667 376.502C570.101 373.24 644.455 362.887 670.76 395.124Z" fill="url(#paint0_linear_373_513)"/>
<path fill-rule="evenodd" clip-rule="evenodd" d="M1021.83 775.486C1005.4 824.008 901.43 843.185 831.911 834.765C761.343 826.219 749.083 737.703 677.682 733.806C604.131 729.791 568.254 819.792 494.643 816.354C431.427 813.402 395.257 760.122 369.102 719.393C341.439 676.317 300.837 617.861 343.771 581.418C393.67 539.063 521.342 594.025 568.504 550.135C631.546 491.466 506.652 353.038 607.878 335.632C706.842 318.615 699.766 459.563 760.603 517.103C782.383 537.703 823.382 542.126 846.93 561.729C872.105 582.686 880.665 609.463 900.14 633.265C940.194 682.217 1040.48 720.393 1021.83 775.486Z" fill="url(#paint1_linear_373_513)"/>
<path fill-rule="evenodd" clip-rule="evenodd" d="M1023.74 690.402C987.244 688.211 968.369 657.161 950.302 633.19C935.759 613.895 940.185 587.51 930.021 566.065C921.736 548.584 908.546 534.18 896.089 518.803C874.862 492.602 831.504 476.393 830.298 442.973C829.193 412.382 852.118 366.126 890.275 357.758C943.175 346.158 976.373 411.447 1029.2 399.355C1070.14 389.983 1063.09 330.76 1099.11 309.957C1134.78 289.357 1197.98 264.474 1219.96 289.184C1247.94 320.644 1170.08 379.152 1191.79 414.167C1210.91 444.997 1292.09 414.379 1315.31 442.957C1334.19 466.201 1318.59 511.496 1287.61 532.102C1248.86 557.884 1188.03 527.037 1149.63 553.188C1118.55 574.352 1148.05 617.273 1123.88 643.612C1100.38 669.225 1059.41 692.544 1023.74 690.402Z" fill="url(#paint2_linear_373_513)"/>
</g>
</g>
<defs>
<filter id="filter0_f_373_513" x="0" y="0" width="1445" height="1245" filterUnits="userSpaceOnUse" color-interpolation-filters="sRGB">
<feFlood flood-opacity="0" result="BackgroundImageFix"/>
<feBlend mode="normal" in="SourceGraphic" in2="BackgroundImageFix" result="shape"/>
<feGaussianBlur stdDeviation="2" result="effect1_foregroundBlur_373_513"/>
</filter>
<filter id="filter1_f_373_513" x="2.02026" y="128.879" width="1471.49" height="857.806" filterUnits="userSpaceOnUse" color-interpolation-filters="sRGB">
<feFlood flood-opacity="0" result="BackgroundImageFix"/>
<feBlend mode="normal" in="SourceGraphic" in2="BackgroundImageFix" result="shape"/>
<feGaussianBlur stdDeviation="75" result="effect1_foregroundBlur_373_513"/>
</filter>
<linearGradient id="paint0_linear_373_513" x1="676.988" y1="397.604" x2="402.45" y2="786.774" gradientUnits="userSpaceOnUse">
<stop stop-color="#FF7A00"/>
<stop offset="1" stop-color="#4200FF"/>
</linearGradient>
<linearGradient id="paint1_linear_373_513" x1="979.258" y1="728.423" x2="475.016" y2="315.74" gradientUnits="userSpaceOnUse">
<stop stop-color="#36025F"/>
<stop offset="1" stop-color="#389398"/>
</linearGradient>
<linearGradient id="paint2_linear_373_513" x1="1030.03" y1="690.539" x2="1030.03" y2="278.879" gradientUnits="userSpaceOnUse">
<stop stop-color="#A7576F"/>
<stop offset="1" stop-color="#813DAE"/>
</linearGradient>
<clipPath id="clip0_373_513">
<rect width="1437" height="1237" fill="white" transform="translate(4 4)"/>
</clipPath>
</defs>
</svg>
