<svg width="1440" height="4317" viewBox="0 0 1440 4317" fill="none" xmlns="http://www.w3.org/2000/svg">
<g clip-path="url(#clip0_467_865)">
<rect width="1440" height="4317" fill="white"/>
<g opacity="0.6" filter="url(#filter0_f_467_865)">
<path opacity="0.7" fill-rule="evenodd" clip-rule="evenodd" d="M909.543 2421.03C865.61 2404.35 911.341 2328.98 883.667 2296.93C861.495 2271.25 792.239 2293.33 774.574 2264.73C757.469 2237.03 775.348 2193.37 797.979 2158.17C819.528 2124.66 865.848 2106.39 895.743 2076.27C930.385 2041.38 941.321 1989.86 987.037 1967.74C1031.91 1946.02 1075.12 1965.43 1118.67 1968.41C1163.31 1971.46 1215.53 1963.65 1246.47 1985.47C1277.75 2007.54 1294.36 2045.82 1285.82 2086.32C1277.59 2125.33 1231.84 2158.61 1202.27 2194.97C1180.84 2221.32 1158.77 2245.59 1135.53 2271.11C1107.61 2301.77 1087.53 2336.66 1051.44 2360.61C1007.66 2389.65 948.442 2435.79 909.543 2421.03Z" fill="url(#paint0_linear_467_865)"/>
<path fill-rule="evenodd" clip-rule="evenodd" d="M307.013 1752.28C339.712 1735.93 371.584 1753.38 399.216 1765.11C421.457 1774.54 430.817 1799.61 450.342 1813.1C466.258 1824.09 484.882 1829.97 503.358 1837.06C534.843 1849.14 580.496 1841.5 598.251 1869.84C614.502 1895.78 617.777 1947.3 588.916 1973.62C548.904 2010.12 487.509 1970.18 447.806 2007.06C417.033 2035.65 452.753 2083.41 431.96 2119.44C411.371 2155.11 369.077 2208.26 337.689 2197.85C297.728 2184.6 335.9 2095 299.589 2075.53C267.62 2058.39 212.626 2125.49 178.229 2112.36C150.251 2101.67 141.119 2054.64 157.638 2021.31C178.305 1979.6 246.415 1975.9 266.594 1934.05C282.925 1900.19 235.922 1877.76 243.681 1842.87C251.226 1808.94 275.045 1768.26 307.013 1752.28Z" fill="url(#paint1_linear_467_865)"/>
</g>
<g opacity="0.6" filter="url(#filter1_f_467_865)">
<path opacity="0.7" fill-rule="evenodd" clip-rule="evenodd" d="M607.97 2554.19C625.241 2597.89 538.728 2614.87 533.685 2656.91C529.645 2690.6 592.615 2726.91 583.375 2759.23C574.427 2790.53 530.12 2806.73 488.86 2813.71C449.575 2820.37 404.868 2798.44 362.474 2796.63C313.347 2794.54 267.902 2821.16 220.758 2802.28C174.484 2783.74 159.72 2738.73 132.581 2704.54C104.77 2669.5 63.8136 2636.17 59.1012 2598.59C54.3379 2560.61 71.4385 2522.54 107.126 2501.58C141.499 2481.38 196.914 2492.77 243.708 2490.13C277.621 2488.22 310.42 2488.18 344.933 2488.17C386.407 2488.15 425.715 2479.48 467.73 2490.03C518.685 2502.82 592.677 2515.5 607.97 2554.19Z" fill="url(#paint2_linear_467_865)"/>
<path fill-rule="evenodd" clip-rule="evenodd" d="M851.318 3344.01C817.208 3330.86 808.636 3295.55 798.688 3267.23C790.68 3244.43 802.898 3220.63 799.716 3197.11C797.121 3177.94 788.92 3160.22 781.712 3141.79C769.429 3110.38 733.027 3081.79 742.011 3049.58C750.234 3020.09 786.105 2982.97 825.003 2986.56C878.93 2991.55 890.768 3063.83 944.774 3068.32C986.633 3071.81 997.868 3013.24 1038.5 3004.33C1078.74 2995.52 1146.51 2990.97 1159.96 3021.18C1177.08 3059.64 1085.15 3091.79 1095.22 3131.74C1104.09 3166.92 1190.73 3162.35 1204.19 3196.63C1215.14 3224.5 1186.53 3262.93 1150.77 3273.18C1106.03 3286 1057.41 3238.16 1012.89 3251.43C976.859 3262.18 991.95 3312.02 960.935 3329.79C930.775 3347.07 884.666 3356.87 851.318 3344.01Z" fill="url(#paint3_linear_467_865)"/>
</g>
<g opacity="0.6" filter="url(#filter2_f_467_865)">
<path opacity="0.7" fill-rule="evenodd" clip-rule="evenodd" d="M616.969 3446.19C634.241 3489.89 547.728 3506.87 542.685 3548.91C538.644 3582.6 601.615 3618.91 592.375 3651.23C583.426 3682.53 539.119 3698.73 497.86 3705.71C458.574 3712.37 413.867 3690.44 371.473 3688.63C322.347 3686.54 276.902 3713.16 229.757 3694.28C183.484 3675.74 168.72 3630.73 141.581 3596.54C113.77 3561.49 72.8134 3528.16 68.101 3490.59C63.3376 3452.61 80.4382 3414.54 116.125 3393.58C150.499 3373.38 205.914 3384.77 252.708 3382.13C286.621 3380.22 319.42 3380.18 353.933 3380.17C395.407 3380.15 434.715 3371.48 476.73 3382.03C527.685 3394.82 601.677 3407.5 616.969 3446.19Z" fill="url(#paint4_linear_467_865)"/>
<path fill-rule="evenodd" clip-rule="evenodd" d="M1026.31 4214.5C992.204 4201.35 983.632 4166.03 973.684 4137.71C965.676 4114.92 977.894 4091.12 974.711 4067.6C972.117 4048.43 963.916 4030.7 956.708 4012.27C944.424 3980.87 908.023 3952.28 917.006 3920.07C925.23 3890.58 961.101 3853.45 999.999 3857.05C1053.93 3862.03 1065.76 3934.32 1119.77 3938.81C1161.63 3942.29 1172.86 3883.72 1213.5 3874.82C1253.73 3866 1321.5 3861.46 1334.95 3891.67C1352.08 3930.13 1260.15 3962.28 1270.22 4002.23C1279.09 4037.4 1365.73 4032.84 1379.19 4067.11C1390.14 4094.99 1361.53 4133.42 1325.77 4143.66C1281.03 4156.48 1232.41 4108.64 1187.89 4121.92C1151.85 4132.66 1166.95 4182.51 1135.93 4200.28C1105.77 4217.56 1059.66 4227.36 1026.31 4214.5Z" fill="url(#paint5_linear_467_865)"/>
</g>
<g opacity="0.8" filter="url(#filter3_f_467_865)">
<path fill-rule="evenodd" clip-rule="evenodd" d="M679.217 573.124C708.926 609.531 631.634 651.943 639.576 693.535C645.94 726.858 716.956 742.366 717.952 775.97C718.916 808.511 681.605 837.378 644.406 856.545C608.987 874.795 559.737 867.459 518.79 878.591C471.342 891.49 436.109 930.642 385.458 926.94C335.742 923.306 308.026 884.893 271.795 860.537C234.669 835.578 185.534 816.235 169.651 781.861C153.596 747.114 158.349 705.652 185.998 674.852C212.63 645.185 268.889 639.235 312.681 622.531C344.417 610.426 375.661 600.445 408.543 589.965C448.059 577.37 482.888 557.192 526.123 554.502C578.558 551.24 652.911 540.888 679.217 573.124Z" fill="url(#paint6_linear_467_865)"/>
<path fill-rule="evenodd" clip-rule="evenodd" d="M881.213 523.494C864.783 572.016 760.815 591.193 691.295 582.774C620.728 574.227 608.467 485.712 537.066 481.814C463.516 477.799 427.639 567.801 354.027 564.363C290.812 561.41 254.641 508.131 228.486 467.402C200.823 424.325 160.222 365.87 203.156 329.426C253.054 287.071 380.726 342.034 427.888 298.143C490.931 239.475 366.037 101.046 467.263 83.6406C566.226 66.624 559.15 207.571 619.988 265.112C641.767 285.711 682.766 290.134 706.314 309.737C731.489 330.695 740.05 357.472 759.525 381.274C799.578 430.225 899.868 468.402 881.213 523.494Z" fill="url(#paint7_linear_467_865)"/>
<path fill-rule="evenodd" clip-rule="evenodd" d="M967.194 799.403C930.702 797.212 911.826 766.161 893.759 742.191C879.217 722.896 883.642 696.511 873.479 675.066C865.193 657.584 852.004 643.18 839.547 627.804C818.319 601.602 774.962 585.393 773.755 551.973C772.651 521.383 795.576 475.126 833.733 466.759C886.632 455.158 919.83 520.447 972.657 508.355C1013.6 498.983 1006.55 439.76 1042.57 418.957C1078.24 398.358 1141.44 373.474 1163.42 398.184C1191.4 429.644 1113.54 488.152 1135.25 523.168C1154.37 553.997 1235.54 523.379 1258.76 551.957C1277.65 575.202 1262.04 620.497 1231.07 641.103C1192.32 666.885 1131.49 636.037 1093.09 662.189C1062.01 683.353 1091.5 726.273 1067.34 752.612C1043.84 778.226 1002.87 801.545 967.194 799.403Z" fill="url(#paint8_linear_467_865)"/>
</g>
<g opacity="0.4" filter="url(#filter4_f_467_865)">
<path fill-rule="evenodd" clip-rule="evenodd" d="M854.235 1586.08C847.813 1546.5 923.031 1548.13 934.907 1514.01C944.423 1486.66 898.556 1444.9 912.159 1419.64C925.331 1395.18 965.222 1389.77 1000.89 1391.48C1034.85 1393.1 1068.12 1419.54 1103.13 1428.78C1143.7 1439.49 1186.45 1425.59 1222.3 1449.94C1257.49 1473.84 1261.58 1514.05 1277.97 1547.51C1294.75 1581.8 1322.81 1617.06 1319.88 1649.24C1316.92 1681.77 1295.72 1710.38 1262.14 1721.35C1229.8 1731.91 1185.69 1712.3 1146.2 1705.96C1117.58 1701.37 1090.23 1695.41 1061.46 1689.13C1026.88 1681.57 992.53 1681.62 959.43 1665.16C919.288 1645.2 859.921 1621.13 854.235 1586.08Z" fill="url(#paint9_linear_467_865)"/>
<path fill-rule="evenodd" clip-rule="evenodd" d="M662.251 957.814C695.097 928.965 780.116 959.154 827.9 995.039C876.405 1031.46 847.698 1102.11 898.803 1135.46C951.446 1169.81 1016.36 1118.6 1069.3 1152.55C1114.76 1181.71 1118.75 1236.51 1120.7 1277.77C1122.77 1321.41 1127.83 1381.94 1080.55 1390.55C1025.6 1400.56 954.701 1305.47 901.12 1317.78C829.497 1334.24 862.733 1489.83 780.497 1459.5C700.099 1429.85 765.468 1328.71 745.059 1260.23C737.752 1235.71 709.34 1214.95 700.301 1190.41C690.639 1164.18 695.737 1140.74 691.5 1114.84C682.786 1061.57 624.958 990.569 662.251 957.814Z" fill="url(#paint10_linear_467_865)"/>
<path fill-rule="evenodd" clip-rule="evenodd" d="M559.183 1211.72C585.217 1228.91 585.918 1259.91 589.042 1285.33C591.557 1305.8 577.029 1323.41 575.39 1343.59C574.054 1360.05 577.655 1376.32 580.301 1393C584.809 1421.42 609.935 1451.9 596.567 1477.11C584.331 1500.19 547.652 1524.6 515.883 1514.5C471.838 1500.5 475.161 1438.08 430.961 1424.48C396.703 1413.94 376.647 1460.71 341.15 1460.72C306.001 1460.72 248.675 1452.15 242.976 1424.51C235.722 1389.32 318.225 1379.3 317.12 1344.16C316.147 1313.22 243.089 1301.21 238.123 1270.18C234.084 1244.94 264.944 1218.13 296.625 1216.11C336.263 1213.6 368.061 1262.35 407.597 1259.41C439.594 1257.03 436.111 1212.72 465.209 1203.57C493.505 1194.67 533.731 1194.91 559.183 1211.72Z" fill="url(#paint11_linear_467_865)"/>
</g>
</g>
<defs>
<filter id="filter0_f_467_865" x="-0.583984" y="1595.62" width="1438.63" height="978.255" filterUnits="userSpaceOnUse" color-interpolation-filters="sRGB">
<feFlood flood-opacity="0" result="BackgroundImageFix"/>
<feBlend mode="normal" in="SourceGraphic" in2="BackgroundImageFix" result="shape"/>
<feGaussianBlur stdDeviation="75" result="effect1_foregroundBlur_467_865"/>
</filter>
<filter id="filter1_f_467_865" x="-91.6812" y="2334.8" width="1448.24" height="1165.1" filterUnits="userSpaceOnUse" color-interpolation-filters="sRGB">
<feFlood flood-opacity="0" result="BackgroundImageFix"/>
<feBlend mode="normal" in="SourceGraphic" in2="BackgroundImageFix" result="shape"/>
<feGaussianBlur stdDeviation="75" result="effect1_foregroundBlur_467_865"/>
</filter>
<filter id="filter2_f_467_865" x="-82.6816" y="3226.8" width="1614.24" height="1143.58" filterUnits="userSpaceOnUse" color-interpolation-filters="sRGB">
<feFlood flood-opacity="0" result="BackgroundImageFix"/>
<feBlend mode="normal" in="SourceGraphic" in2="BackgroundImageFix" result="shape"/>
<feGaussianBlur stdDeviation="75" result="effect1_foregroundBlur_467_865"/>
</filter>
<filter id="filter3_f_467_865" x="10.4766" y="-67.7744" width="1406.49" height="1144.96" filterUnits="userSpaceOnUse" color-interpolation-filters="sRGB">
<feFlood flood-opacity="0" result="BackgroundImageFix"/>
<feBlend mode="normal" in="SourceGraphic" in2="BackgroundImageFix" result="shape"/>
<feGaussianBlur stdDeviation="75" result="effect1_foregroundBlur_467_865"/>
</filter>
<filter id="filter4_f_467_865" x="87.7656" y="796.295" width="1382.33" height="1078.12" filterUnits="userSpaceOnUse" color-interpolation-filters="sRGB">
<feFlood flood-opacity="0" result="BackgroundImageFix"/>
<feBlend mode="normal" in="SourceGraphic" in2="BackgroundImageFix" result="shape"/>
<feGaussianBlur stdDeviation="75" result="effect1_foregroundBlur_467_865"/>
</filter>
<linearGradient id="paint0_linear_467_865" x1="902.909" y1="2421.99" x2="946.081" y2="1947.69" gradientUnits="userSpaceOnUse">
<stop stop-color="#FF7A00"/>
<stop offset="1" stop-color="#4200FF"/>
</linearGradient>
<linearGradient id="paint1_linear_467_865" x1="301.494" y1="1755.3" x2="507.323" y2="2111.81" gradientUnits="userSpaceOnUse">
<stop stop-color="#A7576F"/>
<stop offset="1" stop-color="#813DAE"/>
</linearGradient>
<linearGradient id="paint2_linear_467_865" x1="613.152" y1="2558.44" x2="233.537" y2="2846.05" gradientUnits="userSpaceOnUse">
<stop stop-color="#FF7A00"/>
<stop offset="1" stop-color="#4200FF"/>
</linearGradient>
<linearGradient id="paint3_linear_467_865" x1="857.275" y1="3346.05" x2="982.097" y2="2953.77" gradientUnits="userSpaceOnUse">
<stop stop-color="#A7576F"/>
<stop offset="1" stop-color="#813DAE"/>
</linearGradient>
<linearGradient id="paint4_linear_467_865" x1="622.152" y1="3450.44" x2="242.536" y2="3738.05" gradientUnits="userSpaceOnUse">
<stop stop-color="#FF7A00"/>
<stop offset="1" stop-color="#4200FF"/>
</linearGradient>
<linearGradient id="paint5_linear_467_865" x1="1032.27" y1="4216.54" x2="1157.09" y2="3824.26" gradientUnits="userSpaceOnUse">
<stop stop-color="#A7576F"/>
<stop offset="1" stop-color="#813DAE"/>
</linearGradient>
<linearGradient id="paint6_linear_467_865" x1="685.444" y1="575.604" x2="410.907" y2="964.775" gradientUnits="userSpaceOnUse">
<stop stop-color="#FF7A00"/>
<stop offset="1" stop-color="#4200FF"/>
</linearGradient>
<linearGradient id="paint7_linear_467_865" x1="838.642" y1="476.431" x2="334.4" y2="63.7488" gradientUnits="userSpaceOnUse">
<stop stop-color="#36025F"/>
<stop offset="1" stop-color="#389398"/>
</linearGradient>
<linearGradient id="paint8_linear_467_865" x1="973.489" y1="799.54" x2="973.489" y2="387.88" gradientUnits="userSpaceOnUse">
<stop stop-color="#A7576F"/>
<stop offset="1" stop-color="#813DAE"/>
</linearGradient>
<linearGradient id="paint9_linear_467_865" x1="850.691" y1="1581.59" x2="1219.63" y2="1411.12" gradientUnits="userSpaceOnUse">
<stop stop-color="#FF7A00"/>
<stop offset="1" stop-color="#4200FF"/>
</linearGradient>
<linearGradient id="paint10_linear_467_865" x1="673.632" y1="1010.76" x2="870.199" y2="1530.9" gradientUnits="userSpaceOnUse">
<stop stop-color="#36025F"/>
<stop offset="1" stop-color="#389398"/>
</linearGradient>
<linearGradient id="paint11_linear_467_865" x1="554.59" y1="1208.93" x2="378.942" y2="1513.16" gradientUnits="userSpaceOnUse">
<stop stop-color="#A7576F"/>
<stop offset="1" stop-color="#813DAE"/>
</linearGradient>
<clipPath id="clip0_467_865">
<rect width="1440" height="4317" fill="white"/>
</clipPath>
</defs>
</svg>
