<svg width="115" height="100" viewBox="0 0 115 100" fill="none" xmlns="http://www.w3.org/2000/svg">
<path d="M52.5003 47.709L94.167 21.6673V11.2507L52.5003 37.2923L10.8337 11.2507V21.6673L52.5003 47.709ZM88.9587 99.7923C81.7538 99.7923 75.6115 97.2524 70.5316 92.1725C65.4517 87.0927 62.9135 80.952 62.917 73.7507C62.917 66.5458 65.4569 60.4034 70.5368 55.3236C75.6167 50.2437 81.7573 47.7055 88.9587 47.709C96.1635 47.709 102.306 50.2489 107.386 55.3288C112.466 60.4086 115.004 66.5493 115 73.7507C115 80.9555 112.46 87.0979 107.381 92.1777C102.301 97.2576 96.1601 99.7958 88.9587 99.7923ZM73.3337 76.3548H104.584V71.1465H73.3337V76.3548ZM10.8337 84.1673C7.96908 84.1673 5.51596 83.1465 3.47429 81.1048C1.43263 79.0632 0.413529 76.6118 0.417001 73.7507V11.2507C0.417001 8.38608 1.43783 5.93295 3.4795 3.89128C5.52117 1.84962 7.97256 0.830521 10.8337 0.833993H94.167C97.0316 0.833993 99.4847 1.85483 101.526 3.89649C103.568 5.93816 104.587 8.38955 104.584 11.2507V40.9382C102.153 39.7229 99.6357 38.8114 97.0316 38.2038C94.4274 37.5961 91.7365 37.2923 88.9587 37.2923C78.8024 37.2923 70.1861 40.8288 63.1097 47.9017C56.0333 54.9746 52.4969 63.5909 52.5003 73.7507C52.5003 75.4868 52.6305 77.2229 52.891 78.959C53.1514 80.6951 53.542 82.4312 54.0628 84.1673H10.8337Z" fill="black"/>
</svg>
